<?xml version="1.0" encoding="utf-8"?>
<!-- Generator: Adobe Illustrator 23.0.1, SVG Export Plug-In . SVG Version: 6.00 Build 0)  -->
<svg version="1.1" id="Layer_1" xmlns="http://www.w3.org/2000/svg" xmlns:xlink="http://www.w3.org/1999/xlink" x="0px" y="0px"
	 viewBox="0 0 791 70.1" style="enable-background:new 0 0 791 70.1;" xml:space="preserve">
<style type="text/css">
	.st0{fill:#1D1D1B;}
	.st1{fill:#FFFFFF;}
</style>
<title>dadosamesa</title>
<g>
	<g id="arte">
		<g>
			<polygon class="st0" points="435,1 435,69.1 494.5,69.1 			"/>
			<path class="st1" d="M494.5,70.1H435c-0.6,0-1-0.4-1-1V1c0-0.4,0.3-0.8,0.6-0.9c0.4-0.1,0.8,0,1.1,0.3l59.6,68.1
				c0.3,0.3,0.3,0.7,0.2,1.1C495.3,69.9,494.9,70.1,494.5,70.1z M436,68.1h56.4L436,3.7V68.1z"/>
		</g>
		<g>
			<path class="st0" d="M366.8,1c-18.8,0-34,15.2-34,34h34V1z"/>
			<path class="st1" d="M366.8,36h-34c-0.6,0-1-0.4-1-1c0-19.3,15.7-35,35-35c0.6,0,1,0.4,1,1v34C367.8,35.6,367.3,36,366.8,36z
				 M333.8,34h32V2C348.4,2.5,334.3,16.6,333.8,34z"/>
		</g>
		<g>
			<path class="st0" d="M366.8,35c18.8,0,34-15.2,34-34h-34V35z"/>
			<path class="st1" d="M366.8,36c-0.6,0-1-0.4-1-1V1c0-0.6,0.4-1,1-1h34c0.6,0,1,0.4,1,1C401.8,20.3,386.1,36,366.8,36z M367.8,2
				v32c17.4-0.5,31.5-14.6,32-32H367.8z"/>
		</g>
		<g>
			<path class="st0" d="M332.7,69.1c18.8,0,34-15.2,34-34h-34V69.1z"/>
			<path class="st1" d="M332.7,70.1c-0.6,0-1-0.4-1-1v-34c0-0.6,0.4-1,1-1h34c0.6,0,1,0.4,1,1C367.7,54.4,352,70.1,332.7,70.1z
				 M333.7,36.1v32c17.4-0.5,31.5-14.6,32-32H333.7z"/>
		</g>
		<g>
			<path class="st0" d="M332.7,35c-18.8,0-34,15.2-34,34h34V35z"/>
			<path class="st1" d="M332.7,70h-34c-0.6,0-1-0.4-1-1c0-19.3,15.7-35,35-35c0.6,0,1,0.4,1,1v34C333.7,69.6,333.3,70,332.7,70z
				 M299.7,68h32v-32C314.3,36.6,300.3,50.6,299.7,68z"/>
		</g>
		<g>
			<path class="st0" d="M257.3,1L257.3,1c-18.8,0-34,15.2-34,34s15.2,34,34,34l0,0c18.8,0,34-15.2,34-34S276.1,1,257.3,1z"/>
			<path class="st1" d="M257.3,70.1c-19.3,0-35-15.7-35-35s15.7-35,35-35c19.3,0,35,15.7,35,35S276.6,70.1,257.3,70.1z M257.3,2
				c-18.2,0-33,14.8-33,33c0,18.2,14.8,33,33,33s33-14.8,33-33C290.3,16.8,275.5,2,257.3,2z"/>
		</g>
		<g>
			<polygon class="st0" points="790,1 790,69.1 730.5,69.1 			"/>
			<path class="st1" d="M790,70.1h-59.6c-0.4,0-0.7-0.2-0.9-0.6c-0.2-0.4-0.1-0.8,0.2-1.1l59.6-68.1c0.3-0.3,0.7-0.4,1.1-0.3
				c0.4,0.1,0.6,0.5,0.6,0.9v68.1C791,69.6,790.6,70.1,790,70.1z M732.7,68.1H789V3.7L732.7,68.1z"/>
		</g>
		<g>
			<polygon class="st0" points="528.7,69.1 528.7,1 588.3,1 			"/>
			<path class="st1" d="M528.7,70.1c-0.1,0-0.2,0-0.4-0.1c-0.4-0.1-0.6-0.5-0.6-0.9V1c0-0.6,0.4-1,1-1h59.6c0.4,0,0.7,0.2,0.9,0.6
				c0.2,0.4,0.1,0.8-0.2,1.1l-59.6,68.1C529.3,70,529,70.1,528.7,70.1z M529.7,2v64.4L586.1,2H529.7z"/>
		</g>
		<g>
			<polygon class="st0" points="588.3,69.1 588.3,1 528.7,1 			"/>
			<path class="st1" d="M588.3,70.1c-0.3,0-0.6-0.1-0.8-0.3L528,1.7c-0.3-0.3-0.3-0.7-0.2-1.1c0.2-0.4,0.5-0.6,0.9-0.6h59.6
				c0.6,0,1,0.4,1,1v68.1c0,0.4-0.3,0.8-0.6,0.9C588.5,70.1,588.4,70.1,588.3,70.1z M530.9,2l56.4,64.4V2H530.9z"/>
		</g>
		<g>
			<path class="st0" d="M720.4,1c-18.8,0-34,15.2-34,34h34V1z"/>
			<path class="st1" d="M720.4,36h-34c-0.6,0-1-0.4-1-1c0-19.3,15.7-35,35-35c0.6,0,1,0.4,1,1v34C721.4,35.6,721,36,720.4,36z
				 M687.4,34h32V2C702,2.5,687.9,16.6,687.4,34z"/>
		</g>
		<g>
			<path class="st0" d="M720.4,35c18.8,0,34-15.2,34-34h-34V35z"/>
			<path class="st1" d="M720.4,36c-0.6,0-1-0.4-1-1V1c0-0.6,0.4-1,1-1h34c0.6,0,1,0.4,1,1C755.4,20.3,739.7,36,720.4,36z M721.4,2
				v32c17.4-0.5,31.5-14.6,32-32H721.4z"/>
		</g>
		<g>
			<path class="st0" d="M686.4,69.1c18.8,0,34-15.2,34-34h-34V69.1z"/>
			<path class="st1" d="M686.4,70.1c-0.6,0-1-0.4-1-1v-34c0-0.6,0.4-1,1-1h34c0.6,0,1,0.4,1,1C721.4,54.4,705.7,70.1,686.4,70.1z
				 M687.4,36.1v32c17.4-0.5,31.5-14.6,32-32H687.4z"/>
		</g>
		<g>
			<path class="st0" d="M686.4,35c-18.8,0-34,15.2-34,34h34V35z"/>
			<path class="st1" d="M686.4,70h-34c-0.6,0-1-0.4-1-1c0-19.3,15.7-35,35-35c0.6,0,1,0.4,1,1v34C687.4,69.6,686.9,70,686.4,70z
				 M653.4,68h32v-32C668,36.6,653.9,50.6,653.4,68z"/>
		</g>
		<g>
			<path class="st0" d="M635.3,1c-18.8,0-34,15.2-34,34s15.2,34,34,34V1z"/>
			<path class="st1" d="M635.3,70.1c-19.3,0-35-15.7-35-35s15.7-35,35-35c0.6,0,1,0.4,1,1v68.1C636.3,69.6,635.9,70.1,635.3,70.1z
				 M634.3,2c-17.8,0.5-32,15.1-32,33s14.3,32.5,32,33V2z"/>
		</g>
		<g>
			<path class="st0" d="M635.3,35c18.8,0,34-15.2,34-34h-34V35z"/>
			<path class="st1" d="M635.3,36c-0.6,0-1-0.4-1-1V1c0-0.6,0.4-1,1-1h34c0.6,0,1,0.4,1,1C670.3,20.3,654.6,36,635.3,36z M636.3,2
				v32c17.4-0.5,31.5-14.6,32-32H636.3z"/>
		</g>
		<g>
			<path class="st0" d="M177.9,69.1c18.8,0,34-15.2,34-34s-15.2-34-34-34V69.1z"/>
			<path class="st1" d="M177.9,70.1c-0.6,0-1-0.4-1-1V1c0-0.6,0.4-1,1-1c19.3,0,35,15.7,35,35S197.2,70.1,177.9,70.1z M178.9,2v66.1
				c17.8-0.5,32-15.1,32-33S196.6,2.5,178.9,2z"/>
		</g>
		<g>
			<path class="st0" d="M143.8,1c0,18.8,15.2,34,34,34V1H143.8z"/>
			<path class="st1" d="M177.8,36c-19.3,0-35-15.7-35-35c0-0.6,0.4-1,1-1h34c0.6,0,1,0.4,1,1v34C178.8,35.6,178.4,36,177.8,36z
				 M144.8,2c0.5,17.4,14.6,31.5,32,32V2H144.8z"/>
		</g>
		<g>
			<path class="st0" d="M177.9,35c-18.8,0-34,15.2-34,34h34V35z"/>
			<path class="st1" d="M177.9,70h-34c-0.6,0-1-0.4-1-1c0-19.3,15.7-35,35-35c0.6,0,1,0.4,1,1v34C178.9,69.6,178.4,70,177.9,70z
				 M144.9,68h32v-32C159.4,36.6,145.4,50.6,144.9,68z"/>
		</g>
		<g>
			<path class="st0" d="M35,69.1c18.8,0,34-15.2,34-34S53.8,1,35,1V69.1z"/>
			<path class="st1" d="M35,70.1c-0.6,0-1-0.4-1-1V1c0-0.6,0.4-1,1-1c19.3,0,35,15.7,35,35S54.4,70.1,35,70.1z M36,2v66.1
				c17.8-0.5,32-15.1,32-33S53.8,2.5,36,2z"/>
		</g>
		<g>
			<path class="st0" d="M1,1c0,18.8,15.2,34,34,34V1H1z"/>
			<path class="st1" d="M35,36C15.7,36,0,20.3,0,1c0-0.6,0.4-1,1-1h34c0.6,0,1,0.4,1,1v34C36,35.6,35.6,36,35,36z M2,2
				c0.5,17.4,14.6,31.5,32,32V2H2z"/>
		</g>
		<g>
			<path class="st0" d="M35,35C16.3,35,1,50.3,1,69h34V35z"/>
			<path class="st1" d="M35,70H1c-0.6,0-1-0.4-1-1c0-19.3,15.7-35,35-35c0.6,0,1,0.4,1,1v34C36,69.6,35.6,70,35,70z M2.1,68h32v-32
				C16.6,36.6,2.6,50.6,2.1,68z"/>
		</g>
		<g>
			<polygon class="st0" points="128.6,1 128.6,69.1 69.1,69.1 			"/>
			<path class="st1" d="M128.6,70.1H69.1c-0.4,0-0.7-0.2-0.9-0.6s-0.1-0.8,0.2-1.1l59.6-68.1c0.3-0.3,0.7-0.4,1.1-0.3
				c0.4,0.1,0.6,0.5,0.6,0.9v68.1C129.6,69.6,129.2,70.1,128.6,70.1z M71.3,68.1h56.4V3.7L71.3,68.1z"/>
		</g>
	</g>
</g>
</svg>
