<svg xmlns="http://www.w3.org/2000/svg" viewBox="0 0 790.03 69.08"><defs><style>.cls-1{fill:#1d1d1b;stroke:#fff;stroke-linecap:round;stroke-linejoin:round;}</style></defs><title>dadosamesa</title><g id="Layer_2" data-name="Layer 2"><g id="arte"><polygon class="cls-1" points="434.48 0.5 434.48 68.58 494.05 68.58 434.48 0.5"/><path class="cls-1" d="M366.27.5a34,34,0,0,0-34,34h34Z"/><path class="cls-1" d="M366.27,34.54a34,34,0,0,0,34-34h-34Z"/><path class="cls-1" d="M332.23,68.58a34,34,0,0,0,34-34h-34Z"/><path class="cls-1" d="M332.23,34.54a34,34,0,0,0-34,34h34Z"/><path class="cls-1" d="M256.78.5h0a34,34,0,1,0,0,68.08h0a34,34,0,1,0,0-68.08Z"/><polygon class="cls-1" points="789.53 0.5 789.53 68.58 729.96 68.58 789.53 0.5"/><polygon class="cls-1" points="528.22 68.58 528.22 0.5 587.79 0.5 528.22 68.58"/><polygon class="cls-1" points="587.79 68.58 587.79 0.5 528.22 0.5 587.79 68.58"/><path class="cls-1" d="M719.91.5a34,34,0,0,0-34,34h34Z"/><path class="cls-1" d="M719.91,34.54a34,34,0,0,0,34-34h-34Z"/><path class="cls-1" d="M685.87,68.58a34,34,0,0,0,34-34h-34Z"/><path class="cls-1" d="M685.87,34.54a34,34,0,0,0-34,34h34Z"/><path class="cls-1" d="M634.81.5a34,34,0,1,0,0,68.08Z"/><path class="cls-1" d="M634.81,34.54a34,34,0,0,0,34-34h-34Z"/><path class="cls-1" d="M177.35,68.58a34,34,0,0,0,0-68.08Z"/><path class="cls-1" d="M143.31.5a34,34,0,0,0,34,34V.5Z"/><path class="cls-1" d="M177.35,34.54a34,34,0,0,0-34,34h34Z"/><path class="cls-1" d="M34.54,68.58A34,34,0,0,0,34.54.5Z"/><path class="cls-1" d="M.5.5a34,34,0,0,0,34,34V.5Z"/><path class="cls-1" d="M34.54,34.54a34,34,0,0,0-34,34h34Z"/><polygon class="cls-1" points="128.15 0.5 128.15 68.58 68.58 68.58 128.15 0.5"/></g></g></svg>